<?xml version="1.0" encoding="iso-8859-1"?>
<!-- Generator: Adobe Illustrator 19.0.0, SVG Export Plug-In . SVG Version: 6.00 Build 0)  -->
<svg version="1.1" id="Capa_1" xmlns="http://www.w3.org/2000/svg" xmlns:xlink="http://www.w3.org/1999/xlink" x="0px" y="0px"
	 viewBox="0 0 512.032 512.032" style="enable-background:new 0 0 512.032 512.032;" xml:space="preserve">
<g>
	<g>
		<path d="M288.366,59.904C253.262,7.136,201.518,0.352,199.343,0.096L197.422,0C98.51,0,98.51,124.928,98.51,165.984
			c0,57.248,25.76,103.712,54.24,137.248l-0.352,0.16c-53.824,23.392-77.344,86.368-78.016,88.32
			c-2.368,5.568-22.272,55.296,0.192,90.368c12.128,18.944,33.312,29.024,63.424,29.952c68.48,0,123.392-65.728,158.784-190.08
			C329.806,206.112,326.959,117.92,288.366,59.904z M265.999,313.248C235.374,420.8,189.934,480.032,138.51,480.032
			c-18.432-0.576-30.848-5.696-36.96-15.168c-11.456-17.824-2.208-49.888,2.592-61.44c0.16-0.48,17.728-47.584,54.912-67.712
			c33.504,14.88,52.416,23.232,63.776,26.944c1.792,0.928,3.104,1.472,3.84,1.696l0.128-0.512c11.168,3.04,13.184,0,17.216-5.888
			l-13.408-9.6l7.36-13.792c-1.088-0.544-107.488-62.336-107.488-168.544c0-117.312,34.912-133.6,65.792-133.984
			c5.664,0.96,40.512,8.224,65.408,45.632C294.414,126.816,295.887,208.288,265.999,313.248z"/>
	</g>
</g>
<g>
	<g>
		<path d="M446.063,157.44c-4.096-14.848-13.568-19.776-18.848-21.376c-15.52-4.768-62.56-19.136-144.864,172.576l-5.824,12.992
			c-25.792,56.896-52.064,120.384-37.408,153.536c4.288,9.76,11.808,16.608,23.808,20.352c2.624,0.448,5.28,0.704,7.904,0.704
			c10.624,0,21.12-3.84,30.816-11.328c31.04-23.968,51.872-84.736,56.576-132.16C428.527,273.824,456.047,193.568,446.063,157.44z
			 M330.862,335.2l-3.68,4.096l-0.448,5.504c-3.04,41.088-21.728,96.992-44.672,114.752c-6.464,4.992-10.752,4.928-11.36,4.96
			c-0.928-0.288-1.6-0.608-2.304-2.272c-10.08-22.816,25.568-101.536,37.248-127.424l6.048-13.568
			c52.8-122.912,89.44-154.624,103.744-154.88C420.303,182.368,405.838,252.896,330.862,335.2z"/>
	</g>
</g>
<g>
</g>
<g>
</g>
<g>
</g>
<g>
</g>
<g>
</g>
<g>
</g>
<g>
</g>
<g>
</g>
<g>
</g>
<g>
</g>
<g>
</g>
<g>
</g>
<g>
</g>
<g>
</g>
<g>
</g>
</svg>
